<svg width="194" height="194" viewBox="0 0 194 194" fill="none" xmlns="http://www.w3.org/2000/svg">
<g clip-path="url(#clip0_1_63)">
<path fill-rule="evenodd" clip-rule="evenodd" d="M30 0C13.4315 0 0 13.4315 0 30V164C0 180.569 13.4315 194 30 194H164C180.569 194 194 180.569 194 164V30C194 13.4315 180.569 0 164 0H30ZM52 97C52 104.18 46.1797 110 39 110C31.8203 110 26 104.18 26 97C26 89.8203 31.8203 84 39 84C46.1797 84 52 89.8203 52 97ZM58 97C58 107.493 49.4934 116 39 116C28.5066 116 20 107.493 20 97C20 86.5066 28.5066 78 39 78C49.4934 78 58 86.5066 58 97ZM116 97C116 107.493 107.493 116 97 116C86.5066 116 78 107.493 78 97C78 86.5066 86.5066 78 97 78C107.493 78 116 86.5066 116 97ZM168 97C168 104.18 162.18 110 155 110C147.82 110 142 104.18 142 97C142 89.8203 147.82 84 155 84C162.18 84 168 89.8203 168 97ZM174 97C174 107.493 165.493 116 155 116C144.507 116 136 107.493 136 97C136 86.5066 144.507 78 155 78C165.493 78 174 86.5066 174 97Z" fill="#8080F0"/>
</g>
<defs>
<clipPath id="clip0_1_63">
<rect width="194" height="194" fill="white"/>
</clipPath>
</defs>
</svg>
